Courier Prime Code.ufo
<glyph name="dollar" format="1">
  <advance width="1228"/>
  <unicode hex="0024"/>
  <outline>
    <contour>
      <point x="348" y="1121"/>
      <point x="185" y="1014"/>
      <point x="185" y="817" type="curve" smooth="yes"/>
      <point x="185" y="694"/>
      <point x="249" y="629"/>
      <point x="339" y="592" type="curve" smooth="yes"/>
      <point x="481" y="533"/>
      <point x="688" y="543"/>
      <point x="805" y="500" type="curve" smooth="yes"/>
      <point x="862" y="479"/>
      <point x="898" y="447"/>
      <point x="898" y="388" type="curve" smooth="yes"/>
      <point x="898" y="289"/>
      <point x="814" y="220"/>
      <point x="637" y="220" type="curve" smooth="yes"/>
      <point x="506" y="220"/>
      <point x="378" y="256"/>
      <point x="273" y="317" type="curve" smooth="yes"/>
      <point x="243" y="335"/>
      <point x="213" y="332"/>
      <point x="187" y="281" type="curve" smooth="yes"/>
      <point x="163" y="232"/>
      <point x="174" y="200"/>
      <point x="212" y="179" type="curve" smooth="yes"/>
      <point x="337" y="108"/>
      <point x="485" y="74"/>
      <point x="644" y="74" type="curve" smooth="yes"/>
      <point x="914" y="74"/>
      <point x="1052" y="201"/>
      <point x="1052" y="388" type="curve" smooth="yes"/>
      <point x="1052" y="529"/>
      <point x="977" y="599"/>
      <point x="876" y="638" type="curve" smooth="yes"/>
      <point x="728" y="694"/>
      <point x="525" y="684"/>
      <point x="416" y="725" type="curve" smooth="yes"/>
      <point x="368" y="743"/>
      <point x="339" y="770"/>
      <point x="339" y="817" type="curve" smooth="yes"/>
      <point x="339" y="919"/>
      <point x="427" y="975"/>
      <point x="572" y="975" type="curve" smooth="yes"/>
      <point x="695" y="975"/>
      <point x="812" y="944"/>
      <point x="915" y="889" type="curve" smooth="yes"/>
      <point x="947" y="872"/>
      <point x="977" y="876"/>
      <point x="1000" y="928" type="curve" smooth="yes"/>
      <point x="1023" y="978"/>
      <point x="1011" y="1010"/>
      <point x="973" y="1030" type="curve" smooth="yes"/>
      <point x="852" y="1093"/>
      <point x="713" y="1121"/>
      <point x="568" y="1121" type="curve" smooth="yes"/>
    </contour>
    <contour>
      <point x="538" y="149" type="line"/>
      <point x="538" y="-160" type="line" smooth="yes"/>
      <point x="538" y="-206"/>
      <point x="559" y="-225"/>
      <point x="608" y="-225" type="curve" smooth="yes"/>
      <point x="657" y="-225"/>
      <point x="678" y="-206"/>
      <point x="678" y="-160" type="curve" smooth="yes"/>
      <point x="678" y="149" type="line"/>
    </contour>
    <contour>
      <point x="559" y="1412"/>
      <point x="538" y="1393"/>
      <point x="538" y="1347" type="curve" smooth="yes"/>
      <point x="538" y="1051" type="line"/>
      <point x="678" y="1051" type="line"/>
      <point x="678" y="1347" type="line" smooth="yes"/>
      <point x="678" y="1393"/>
      <point x="657" y="1412"/>
      <point x="608" y="1412" type="curve" smooth="yes"/>
    </contour>
  </outline>
</glyph>
<glyph name="period" format="1">
  <advance width="1228"/>
  <unicode hex="002E"/>
  <outline>
    <contour>
      <point x="519" y="300"/>
      <point x="479" y="282"/>
      <point x="479" y="237" type="curve" smooth="yes"/>
      <point x="479" y="53" type="line" smooth="yes"/>
      <point x="479" y="8"/>
      <point x="519" y="-10"/>
      <point x="614" y="-10" type="curve" smooth="yes"/>
      <point x="709" y="-10"/>
      <point x="749" y="8"/>
      <point x="749" y="53" type="curve" smooth="yes"/>
      <point x="749" y="237" type="line" smooth="yes"/>
      <point x="749" y="282"/>
      <point x="709" y="300"/>
      <point x="614" y="300" type="curve" smooth="yes"/>
    </contour>
  </outline>
</glyph>
<glyph name="seven" format="1">
  <advance width="1228"/>
  <unicode hex="0037"/>
  <outline>
    <contour>
      <point x="853" y="1187" type="line"/>
      <point x="853" y="1051" type="line"/>
      <point x="446" y="56" type="line" smooth="yes"/>
      <point x="430" y="15"/>
      <point x="454" y="-12"/>
      <point x="499" y="-20" type="curve" smooth="yes"/>
      <point x="545" y="-28"/>
      <point x="582" y="-13"/>
      <point x="597" y="24" type="curve" smooth="yes"/>
      <point x="1023" y="1079" type="line" smooth="yes"/>
      <point x="1026" y="1087"/>
      <point x="1029" y="1102"/>
      <point x="1029" y="1119" type="curve" smooth="yes"/>
      <point x="1029" y="1169"/>
      <point x="1011" y="1187"/>
      <point x="966" y="1187" type="curve" smooth="yes"/>
    </contour>
    <contour>
      <point x="262" y="1187" type="line" smooth="yes"/>
      <point x="217" y="1187"/>
      <point x="199" y="1167"/>
      <point x="199" y="1115" type="curve" smooth="yes"/>
      <point x="199" y="1063"/>
      <point x="217" y="1043"/>
      <point x="262" y="1043" type="curve" smooth="yes"/>
      <point x="910" y="1043" type="line"/>
      <point x="910" y="1187" type="line"/>
    </contour>
  </outline>
</glyph>
<glyph name="A" format="1">
  <advance width="1228"/>
  <unicode hex="0041"/>
  <outline>
    <contour>
      <point x="549" y="1209"/>
      <point x="517" y="1191"/>
      <point x="500" y="1144" type="curve" smooth="yes"/>
      <point x="106" y="84" type="line" smooth="yes"/>
      <point x="90" y="40"/>
      <point x="103" y="16"/>
      <point x="157" y="-2" type="curve" smooth="yes"/>
      <point x="210" y="-20"/>
      <point x="235" y="-8"/>
      <point x="251" y="36" type="curve" smooth="yes"/>
      <point x="396" y="427" type="line"/>
      <point x="406" y="456" type="line"/>
      <point x="610" y="1043" type="line"/>
      <point x="614" y="1043" type="line"/>
      <point x="818" y="455" type="line"/>
      <point x="828" y="427" type="line"/>
      <point x="973" y="36" type="line" smooth="yes"/>
      <point x="989" y="-8"/>
      <point x="1014" y="-20"/>
      <point x="1067" y="-2" type="curve" smooth="yes"/>
      <point x="1121" y="16"/>
      <point x="1134" y="40"/>
      <point x="1118" y="84" type="curve" smooth="yes"/>
      <point x="724" y="1144" type="line" smooth="yes"/>
      <point x="707" y="1191"/>
      <point x="675" y="1209"/>
      <point x="612" y="1209" type="curve" smooth="yes"/>
    </contour>
    <contour>
      <point x="335" y="474" type="line"/>
      <point x="335" y="330" type="line"/>
      <point x="893" y="330" type="line"/>
      <point x="893" y="474" type="line"/>
    </contour>
  </outline>
</glyph>
<glyph name="d" format="1">
  <advance width="1228"/>
  <unicode hex="0064"/>
  <outline>
    <contour>
      <point x="960" y="1322" type="line" smooth="yes"/>
      <point x="904" y="1322"/>
      <point x="886" y="1303"/>
      <point x="886" y="1257" type="curve" smooth="yes"/>
      <point x="886" y="781" type="line"/>
      <point x="806" y="883"/>
      <point x="702" y="946"/>
      <point x="569" y="946" type="curve" smooth="yes"/>
      <point x="322" y="946"/>
      <point x="139" y="764"/>
      <point x="139" y="462" type="curve" smooth="yes"/>
      <point x="139" y="160"/>
      <point x="322" y="-22"/>
      <point x="569" y="-22" type="curve" smooth="yes"/>
      <point x="702" y="-22"/>
      <point x="814" y="41"/>
      <point x="896" y="148" type="curve"/>
      <point x="896" y="55" type="line" smooth="yes"/>
      <point x="896" y="9"/>
      <point x="912" y="-10"/>
      <point x="965" y="-10" type="curve" smooth="yes"/>
      <point x="967" y="-10" type="line" smooth="yes"/>
      <point x="1020" y="-10"/>
      <point x="1036" y="9"/>
      <point x="1036" y="55" type="curve" smooth="yes"/>
      <point x="1036" y="1257" type="line" smooth="yes"/>
      <point x="1036" y="1303"/>
      <point x="1018" y="1322"/>
      <point x="962" y="1322" type="curve" smooth="yes"/>
    </contour>
    <contour>
      <point x="756" y="798"/>
      <point x="886" y="674"/>
      <point x="886" y="462" type="curve" smooth="yes"/>
      <point x="886" y="250"/>
      <point x="756" y="126"/>
      <point x="579" y="126" type="curve" smooth="yes"/>
      <point x="398" y="126"/>
      <point x="293" y="266"/>
      <point x="293" y="462" type="curve" smooth="yes"/>
      <point x="293" y="658"/>
      <point x="398" y="798"/>
      <point x="579" y="798" type="curve" smooth="yes"/>
    </contour>
  </outline>
</glyph>
<glyph name="g" format="1">
  <advance width="1228"/>
  <unicode hex="0067"/>
  <outline>
    <contour>
      <point x="322" y="946"/>
      <point x="139" y="774"/>
      <point x="139" y="487" type="curve" smooth="yes"/>
      <point x="139" y="200"/>
      <point x="322" y="28"/>
      <point x="569" y="28" type="curve" smooth="yes"/>
      <point x="702" y="28"/>
      <point x="807" y="85"/>
      <point x="886" y="184" type="curve"/>
      <point x="886" y="-17" type="line" smooth="yes"/>
      <point x="886" y="-164"/>
      <point x="797" y="-262"/>
      <point x="608" y="-262" type="curve" smooth="yes"/>
      <point x="500" y="-262"/>
      <point x="380" y="-238"/>
      <point x="279" y="-202" type="curve" smooth="yes"/>
      <point x="245" y="-190"/>
      <point x="217" y="-203"/>
      <point x="200" y="-253" type="curve" smooth="yes"/>
      <point x="183" y="-304"/>
      <point x="195" y="-333"/>
      <point x="231" y="-346" type="curve" smooth="yes"/>
      <point x="346" y="-388"/>
      <point x="482" y="-410"/>
      <point x="608" y="-410" type="curve" smooth="yes"/>
      <point x="879" y="-410"/>
      <point x="1036" y="-269"/>
      <point x="1036" y="-30" type="curve" smooth="yes"/>
      <point x="1036" y="869" type="line" smooth="yes"/>
      <point x="1036" y="915"/>
      <point x="1020" y="934"/>
      <point x="967" y="934" type="curve" smooth="yes"/>
      <point x="965" y="934" type="line" smooth="yes"/>
      <point x="912" y="934"/>
      <point x="896" y="915"/>
      <point x="896" y="869" type="curve" smooth="yes"/>
      <point x="896" y="776" type="line"/>
      <point x="814" y="883"/>
      <point x="702" y="946"/>
      <point x="569" y="946" type="curve" smooth="yes"/>
    </contour>
    <contour>
      <point x="756" y="798"/>
      <point x="886" y="684"/>
      <point x="886" y="487" type="curve" smooth="yes"/>
      <point x="886" y="290"/>
      <point x="756" y="176"/>
      <point x="579" y="176" type="curve" smooth="yes"/>
      <point x="398" y="176"/>
      <point x="293" y="306"/>
      <point x="293" y="487" type="curve" smooth="yes"/>
      <point x="293" y="668"/>
      <point x="398" y="798"/>
      <point x="579" y="798" type="curve" smooth="yes"/>
    </contour>
  </outline>
</glyph>
<glyph name="m" format="1">
  <advance width="1228"/>
  <unicode hex="006D"/>
  <outline>
    <contour>
      <point x="810" y="946"/>
      <point x="732" y="887"/>
      <point x="672" y="765" type="curve"/>
      <point x="647" y="888"/>
      <point x="571" y="946"/>
      <point x="484" y="946" type="curve" smooth="yes"/>
      <point x="393" y="946"/>
      <point x="309" y="885"/>
      <point x="251" y="757" type="curve"/>
      <point x="251" y="869" type="line" smooth="yes"/>
      <point x="251" y="915"/>
      <point x="237" y="934"/>
      <point x="187" y="934" type="curve" smooth="yes"/>
      <point x="185" y="934" type="line" smooth="yes"/>
      <point x="135" y="934"/>
      <point x="121" y="915"/>
      <point x="121" y="869" type="curve" smooth="yes"/>
      <point x="121" y="55" type="line" smooth="yes"/>
      <point x="121" y="9"/>
      <point x="139" y="-10"/>
      <point x="195" y="-10" type="curve" smooth="yes"/>
      <point x="197" y="-10" type="line" smooth="yes"/>
      <point x="253" y="-10"/>
      <point x="271" y="9"/>
      <point x="271" y="55" type="curve" smooth="yes"/>
      <point x="271" y="457" type="line" smooth="yes"/>
      <point x="271" y="659"/>
      <point x="350" y="798"/>
      <point x="445" y="798" type="curve" smooth="yes"/>
      <point x="513" y="798"/>
      <point x="540" y="749"/>
      <point x="540" y="660" type="curve" smooth="yes"/>
      <point x="540" y="55" type="line" smooth="yes"/>
      <point x="540" y="9"/>
      <point x="558" y="-10"/>
      <point x="614" y="-10" type="curve" smooth="yes"/>
      <point x="616" y="-10" type="line" smooth="yes"/>
      <point x="672" y="-10"/>
      <point x="690" y="9"/>
      <point x="690" y="55" type="curve" smooth="yes"/>
      <point x="690" y="457" type="line" smooth="yes"/>
      <point x="690" y="659"/>
      <point x="769" y="798"/>
      <point x="864" y="798" type="curve" smooth="yes"/>
      <point x="932" y="798"/>
      <point x="959" y="749"/>
      <point x="959" y="660" type="curve" smooth="yes"/>
      <point x="959" y="55" type="line" smooth="yes"/>
      <point x="959" y="9"/>
      <point x="977" y="-10"/>
      <point x="1033" y="-10" type="curve" smooth="yes"/>
      <point x="1035" y="-10" type="line" smooth="yes"/>
      <point x="1091" y="-10"/>
      <point x="1109" y="9"/>
      <point x="1109" y="55" type="curve" smooth="yes"/>
      <point x="1109" y="678" type="line" smooth="yes"/>
      <point x="1109" y="861"/>
      <point x="1016" y="946"/>
      <point x="902" y="946" type="curve" smooth="yes"/>
    </contour>
  </outline>
</glyph>
<glyph name="t" format="1">
  <advance width="1228"/>
  <unicode hex="0074"/>
  <outline>
    <contour>
      <point x="402" y="1209"/>
      <point x="383" y="1190"/>
      <point x="383" y="1144" type="curve" smooth="yes"/>
      <point x="383" y="331" type="line" smooth="yes"/>
      <point x="383" y="102"/>
      <point x="478" y="-22"/>
      <point x="710" y="-22" type="curve" smooth="yes"/>
      <point x="825" y="-22"/>
      <point x="963" y="27"/>
      <point x="1063" y="90" type="curve" smooth="yes"/>
      <point x="1096" y="111"/>
      <point x="1108" y="139"/>
      <point x="1083" y="187" type="curve" smooth="yes"/>
      <point x="1058" y="235"/>
      <point x="1024" y="243"/>
      <point x="994" y="223" type="curve" smooth="yes"/>
      <point x="907" y="166"/>
      <point x="803" y="124"/>
      <point x="710" y="124" type="curve" smooth="yes"/>
      <point x="577" y="124"/>
      <point x="533" y="197"/>
      <point x="533" y="344" type="curve" smooth="yes"/>
      <point x="533" y="1144" type="line" smooth="yes"/>
      <point x="533" y="1190"/>
      <point x="514" y="1209"/>
      <point x="458" y="1209" type="curve" smooth="yes"/>
    </contour>
    <contour>
      <point x="180" y="844" type="line" smooth="yes"/>
      <point x="135" y="844"/>
      <point x="117" y="824"/>
      <point x="117" y="772" type="curve" smooth="yes"/>
      <point x="117" y="720"/>
      <point x="135" y="700"/>
      <point x="180" y="700" type="curve" smooth="yes"/>
      <point x="944" y="700" type="line" smooth="yes"/>
      <point x="989" y="700"/>
      <point x="1007" y="720"/>
      <point x="1007" y="772" type="curve" smooth="yes"/>
      <point x="1007" y="824"/>
      <point x="989" y="844"/>
      <point x="944" y="844" type="curve" smooth="yes"/>
    </contour>
  </outline>
</glyph>
<glyph name="bar" format="1">
  <advance width="1228"/>
  <unicode hex="007C"/>
  <outline>
    <contour>
      <point x="558" y="1394"/>
      <point x="539" y="1375"/>
      <point x="539" y="1329" type="curve" smooth="yes"/>
      <point x="539" y="-290" type="line" smooth="yes"/>
      <point x="539" y="-336"/>
      <point x="558" y="-355"/>
      <point x="614" y="-355" type="curve" smooth="yes"/>
      <point x="670" y="-355"/>
      <point x="689" y="-336"/>
      <point x="689" y="-290" type="curve" smooth="yes"/>
      <point x="689" y="1329" type="line" smooth="yes"/>
      <point x="689" y="1375"/>
      <point x="670" y="1394"/>
      <point x="614" y="1394" type="curve" smooth="yes"/>
    </contour>
  </outline>
</glyph>
<glyph name="yen" format="1">
  <advance width="1228"/>
  <unicode hex="00A5"/>
  <outline>
    <contour>
      <point x="233" y="434" type="line" smooth="yes"/>
      <point x="188" y="434"/>
      <point x="170" y="414"/>
      <point x="170" y="362" type="curve" smooth="yes"/>
      <point x="170" y="310"/>
      <point x="188" y="290"/>
      <point x="233" y="290" type="curve" smooth="yes"/>
      <point x="995" y="290" type="line" smooth="yes"/>
      <point x="1040" y="290"/>
      <point x="1058" y="310"/>
      <point x="1058" y="362" type="curve" smooth="yes"/>
      <point x="1058" y="414"/>
      <point x="1040" y="434"/>
      <point x="995" y="434" type="curve" smooth="yes"/>
    </contour>
    <contour>
      <point x="213" y="744" type="line" smooth="yes"/>
      <point x="168" y="744"/>
      <point x="150" y="724"/>
      <point x="150" y="672" type="curve" smooth="yes"/>
      <point x="150" y="620"/>
      <point x="168" y="600"/>
      <point x="213" y="600" type="curve" smooth="yes"/>
      <point x="554" y="600" type="line"/>
      <point x="472" y="744" type="line"/>
    </contour>
    <contour>
      <point x="768" y="744" type="line"/>
      <point x="674" y="600" type="line"/>
      <point x="1015" y="600" type="line" smooth="yes"/>
      <point x="1060" y="600"/>
      <point x="1078" y="620"/>
      <point x="1078" y="672" type="curve" smooth="yes"/>
      <point x="1078" y="724"/>
      <point x="1060" y="744"/>
      <point x="1015" y="744" type="curve" smooth="yes"/>
    </contour>
    <contour>
      <point x="539" y="552" type="line"/>
      <point x="539" y="55" type="line" smooth="yes"/>
      <point x="539" y="9"/>
      <point x="557" y="-10"/>
      <point x="613" y="-10" type="curve" smooth="yes"/>
      <point x="615" y="-10" type="line" smooth="yes"/>
      <point x="671" y="-10"/>
      <point x="689" y="9"/>
      <point x="689" y="55" type="curve" smooth="yes"/>
      <point x="689" y="552" type="line"/>
    </contour>
    <contour>
      <point x="1005" y="1210"/>
      <point x="977" y="1205"/>
      <point x="955" y="1172" type="curve" smooth="yes"/>
      <point x="563" y="567" type="line"/>
      <point x="671" y="460" type="line"/>
      <point x="1088" y="1096" type="line" smooth="yes"/>
      <point x="1114" y="1136"/>
      <point x="1107" y="1163"/>
      <point x="1055" y="1187" type="curve" smooth="yes"/>
    </contour>
    <contour>
      <point x="121" y="1163"/>
      <point x="114" y="1136"/>
      <point x="140" y="1096" type="curve" smooth="yes"/>
      <point x="548" y="473" type="line"/>
      <point x="670" y="560" type="line"/>
      <point x="273" y="1172" type="line" smooth="yes"/>
      <point x="252" y="1205"/>
      <point x="223" y="1210"/>
      <point x="173" y="1187" type="curve" smooth="yes"/>
    </contour>
  </outline>
</glyph>
<glyph name="acute" format="1">
  <advance width="1228"/>
  <unicode hex="00B4"/>
  <outline>
    <contour>
      <point x="433" y="1146" type="line" smooth="yes"/>
      <point x="408" y="1127"/>
      <point x="413" y="1095"/>
      <point x="441" y="1063" type="curve" smooth="yes"/>
      <point x="467" y="1034"/>
      <point x="493" y="1033"/>
      <point x="519" y="1048" type="curve" smooth="yes"/>
      <point x="893" y="1267" type="line" smooth="yes"/>
      <point x="921" y="1283"/>
      <point x="927" y="1321"/>
      <point x="885" y="1374" type="curve" smooth="yes"/>
      <point x="848" y="1420"/>
      <point x="811" y="1424"/>
      <point x="781" y="1402" type="curve" smooth="yes"/>
    </contour>
  </outline>
</glyph>
<glyph name="onesuperior" format="1">
  <advance width="1228"/>
  <unicode hex="00B9"/>
  <outline>
    <contour>
      <point x="569" y="608" type="line"/>
      <point x="365" y="608" type="line" smooth="yes"/>
      <point x="333" y="608"/>
      <point x="315" y="591"/>
      <point x="315" y="546" type="curve" smooth="yes"/>
      <point x="315" y="501"/>
      <point x="333" y="483"/>
      <point x="365" y="483" type="curve" smooth="yes"/>
      <point x="898" y="483" type="line" smooth="yes"/>
      <point x="930" y="483"/>
      <point x="947" y="501"/>
      <point x="947" y="546" type="curve" smooth="yes"/>
      <point x="947" y="591"/>
      <point x="930" y="608"/>
      <point x="898" y="608" type="curve" smooth="yes"/>
      <point x="704" y="608" type="line"/>
      <point x="704" y="1292" type="line" smooth="yes"/>
      <point x="704" y="1330"/>
      <point x="672" y="1341"/>
      <point x="638" y="1330" type="curve" smooth="yes"/>
      <point x="354" y="1239" type="line" smooth="yes"/>
      <point x="317" y="1227"/>
      <point x="312" y="1201"/>
      <point x="325" y="1163" type="curve" smooth="yes"/>
      <point x="339" y="1123"/>
      <point x="360" y="1110"/>
      <point x="395" y="1122" type="curve" smooth="yes"/>
      <point x="569" y="1179" type="line"/>
    </contour>
  </outline>
</glyph>
<glyph name="divide" format="1">
  <advance width="1228"/>
  <unicode hex="00F7"/>
  <outline>
    <contour>
      <point x="540" y="340"/>
      <point x="509" y="322"/>
      <point x="509" y="277" type="curve" smooth="yes"/>
      <point x="509" y="173" type="line" smooth="yes"/>
      <point x="509" y="128"/>
      <point x="540" y="110"/>
      <point x="614" y="110" type="curve" smooth="yes"/>
      <point x="688" y="110"/>
      <point x="719" y="128"/>
      <point x="719" y="173" type="curve" smooth="yes"/>
      <point x="719" y="277" type="line" smooth="yes"/>
      <point x="719" y="322"/>
      <point x="688" y="340"/>
      <point x="614" y="340" type="curve" smooth="yes"/>
    </contour>
    <contour>
      <point x="540" y="1055"/>
      <point x="509" y="1037"/>
      <point x="509" y="992" type="curve" smooth="yes"/>
      <point x="509" y="888" type="line" smooth="yes"/>
      <point x="509" y="843"/>
      <point x="540" y="825"/>
      <point x="614" y="825" type="curve" smooth="yes"/>
      <point x="688" y="825"/>
      <point x="719" y="843"/>
      <point x="719" y="888" type="curve" smooth="yes"/>
      <point x="719" y="992" type="line" smooth="yes"/>
      <point x="719" y="1037"/>
      <point x="688" y="1055"/>
      <point x="614" y="1055" type="curve" smooth="yes"/>
    </contour>
    <component base="minus"/>
  </outline>
</glyph>
<glyph name="oslash" format="1">
  <advance width="1228"/>
  <unicode hex="00F8"/>
  <outline>
    <contour>
      <point x="108" y="71" type="line" smooth="yes"/>
      <point x="75" y="39"/>
      <point x="76" y="11"/>
      <point x="110" y="-24" type="curve" smooth="yes"/>
      <point x="144" y="-59"/>
      <point x="172" y="-61"/>
      <point x="205" y="-29" type="curve" smooth="yes"/>
      <point x="1119" y="852" type="line" smooth="yes"/>
      <point x="1153" y="884"/>
      <point x="1152" y="913"/>
      <point x="1118" y="948" type="curve" smooth="yes"/>
      <point x="1084" y="983"/>
      <point x="1055" y="985"/>
      <point x="1022" y="953" type="curve" smooth="yes"/>
    </contour>
    <component base="o"/>
  </outline>
</glyph>
<glyph name="aogonek" format="1">
  <advance width="1228"/>
  <unicode hex="0105"/>
  <outline>
    <contour>
      <point x="509" y="946"/>
      <point x="376" y="914"/>
      <point x="264" y="855" type="curve" smooth="yes"/>
      <point x="230" y="837"/>
      <point x="216" y="807"/>
      <point x="238" y="761" type="curve" smooth="yes"/>
      <point x="260" y="715"/>
      <point x="287" y="703"/>
      <point x="324" y="722" type="curve" smooth="yes"/>
      <point x="420" y="771"/>
      <point x="533" y="801"/>
      <point x="634" y="801" type="curve" smooth="yes"/>
      <point x="797" y="801"/>
      <point x="864" y="741"/>
      <point x="864" y="613" type="curve" smooth="yes"/>
      <point x="864" y="528" type="line"/>
      <point x="770" y="561"/>
      <point x="668" y="579"/>
      <point x="560" y="579" type="curve" smooth="yes"/>
      <point x="341" y="579"/>
      <point x="159" y="494"/>
      <point x="159" y="270" type="curve" smooth="yes"/>
      <point x="159" y="84"/>
      <point x="299" y="-22"/>
      <point x="499" y="-22" type="curve" smooth="yes"/>
      <point x="643" y="-22"/>
      <point x="770" y="34"/>
      <point x="874" y="123" type="curve"/>
      <point x="874" y="32" type="line"/>
      <point x="748" y="-69"/>
      <point x="671" y="-169"/>
      <point x="671" y="-281" type="curve" smooth="yes"/>
      <point x="671" y="-397"/>
      <point x="747" y="-472"/>
      <point x="871" y="-472" type="curve" smooth="yes"/>
      <point x="933" y="-472"/>
      <point x="989" y="-462"/>
      <point x="1035" y="-446" type="curve" smooth="yes"/>
      <point x="1064" y="-436"/>
      <point x="1073" y="-415"/>
      <point x="1067" y="-374" type="curve" smooth="yes"/>
      <point x="1062" y="-337"/>
      <point x="1043" y="-322"/>
      <point x="1017" y="-326" type="curve" smooth="yes"/>
      <point x="982" y="-332"/>
      <point x="943" y="-336"/>
      <point x="904" y="-336" type="curve" smooth="yes"/>
      <point x="859" y="-336"/>
      <point x="827" y="-310"/>
      <point x="827" y="-261" type="curve" smooth="yes"/>
      <point x="827" y="-187"/>
      <point x="875" y="-109"/>
      <point x="998" y="4" type="curve" smooth="yes"/>
      <point x="1010" y="15"/>
      <point x="1014" y="30"/>
      <point x="1014" y="55" type="curve" smooth="yes"/>
      <point x="1014" y="613" type="line" smooth="yes"/>
      <point x="1014" y="832"/>
      <point x="889" y="946"/>
      <point x="638" y="946" type="curve" smooth="yes"/>
    </contour>
    <contour>
      <point x="664" y="438"/>
      <point x="772" y="423"/>
      <point x="864" y="393" type="curve"/>
      <point x="864" y="284" type="line"/>
      <point x="766" y="183"/>
      <point x="647" y="119"/>
      <point x="505" y="119" type="curve" smooth="yes"/>
      <point x="384" y="119"/>
      <point x="313" y="176"/>
      <point x="313" y="273" type="curve" smooth="yes"/>
      <point x="313" y="394"/>
      <point x="417" y="438"/>
      <point x="561" y="438" type="curve" smooth="yes"/>
    </contour>
  </outline>
</glyph>
<glyph name="Lslash" format="1">
  <advance width="1228"/>
  <unicode hex="0141"/>
  <outline>
    <contour>
      <point x="92" y="468" type="line" smooth="yes"/>
      <point x="55" y="443"/>
      <point x="50" y="418"/>
      <point x="78" y="377" type="curve" smooth="yes"/>
      <point x="106" y="335"/>
      <point x="132" y="331"/>
      <point x="169" y="356" type="curve" smooth="yes"/>
      <point x="738" y="743" type="line" smooth="yes"/>
      <point x="775" y="768"/>
      <point x="780" y="793"/>
      <point x="752" y="834" type="curve" smooth="yes"/>
      <point x="724" y="876"/>
      <point x="698" y="880"/>
      <point x="661" y="855" type="curve" smooth="yes"/>
    </contour>
    <contour>
      <point x="379" y="1197" type="line" smooth="yes"/>
      <point x="323" y="1197"/>
      <point x="305" y="1178"/>
      <point x="305" y="1132" type="curve" smooth="yes"/>
      <point x="305" y="68" type="line" smooth="yes"/>
      <point x="305" y="18"/>
      <point x="322" y="0"/>
      <point x="368" y="0" type="curve" smooth="yes"/>
      <point x="455" y="0" type="line"/>
      <point x="455" y="1132" type="line" smooth="yes"/>
      <point x="455" y="1178"/>
      <point x="437" y="1197"/>
      <point x="381" y="1197" type="curve" smooth="yes"/>
    </contour>
    <contour>
      <point x="409" y="144" type="line"/>
      <point x="409" y="0" type="line"/>
      <point x="977" y="0" type="line" smooth="yes"/>
      <point x="1022" y="0"/>
      <point x="1040" y="20"/>
      <point x="1040" y="72" type="curve" smooth="yes"/>
      <point x="1040" y="124"/>
      <point x="1022" y="144"/>
      <point x="977" y="144" type="curve" smooth="yes"/>
    </contour>
  </outline>
</glyph>
<glyph name="lslash" format="1">
  <advance width="1228"/>
  <unicode hex="0142"/>
  <outline>
    <contour>
      <point x="301" y="550" type="line" smooth="yes"/>
      <point x="264" y="525"/>
      <point x="259" y="500"/>
      <point x="287" y="459" type="curve" smooth="yes"/>
      <point x="315" y="417"/>
      <point x="341" y="413"/>
      <point x="378" y="438" type="curve" smooth="yes"/>
      <point x="947" y="825" type="line" smooth="yes"/>
      <point x="984" y="850"/>
      <point x="989" y="875"/>
      <point x="961" y="916" type="curve" smooth="yes"/>
      <point x="933" y="958"/>
      <point x="907" y="962"/>
      <point x="870" y="937" type="curve" smooth="yes"/>
    </contour>
    <component base="l"/>
  </outline>
</glyph>
<glyph name="Eng" format="1">
  <advance width="1228"/>
  <unicode hex="014A"/>
  <outline>
    <contour>
      <point x="979" y="1197" type="line" smooth="yes"/>
      <point x="925" y="1197"/>
      <point x="907" y="1178"/>
      <point x="907" y="1132" type="curve" smooth="yes"/>
      <point x="907" y="287" type="line"/>
      <point x="903" y="287" type="line"/>
      <point x="339" y="1169" type="line" smooth="yes"/>
      <point x="327" y="1187"/>
      <point x="306" y="1197"/>
      <point x="277" y="1197" type="curve" smooth="yes"/>
      <point x="250" y="1197" type="line" smooth="yes"/>
      <point x="194" y="1197"/>
      <point x="175" y="1178"/>
      <point x="175" y="1132" type="curve" smooth="yes"/>
      <point x="175" y="55" type="line" smooth="yes"/>
      <point x="175" y="9"/>
      <point x="193" y="-10"/>
      <point x="247" y="-10" type="curve" smooth="yes"/>
      <point x="249" y="-10" type="line" smooth="yes"/>
      <point x="303" y="-10"/>
      <point x="321" y="9"/>
      <point x="321" y="55" type="curve" smooth="yes"/>
      <point x="321" y="921" type="line"/>
      <point x="325" y="921" type="line"/>
      <point x="903" y="19" type="line"/>
      <point x="903" y="-107" type="line" smooth="yes"/>
      <point x="903" y="-220"/>
      <point x="863" y="-264"/>
      <point x="781" y="-264" type="curve" smooth="yes"/>
      <point x="721" y="-264"/>
      <point x="657" y="-246"/>
      <point x="604" y="-224" type="curve" smooth="yes"/>
      <point x="575" y="-212"/>
      <point x="544" y="-212"/>
      <point x="521" y="-265" type="curve" smooth="yes"/>
      <point x="499" y="-315"/>
      <point x="511" y="-343"/>
      <point x="549" y="-360" type="curve" smooth="yes"/>
      <point x="617" y="-390"/>
      <point x="700" y="-410"/>
      <point x="780" y="-410" type="curve" smooth="yes"/>
      <point x="956" y="-410"/>
      <point x="1053" y="-314"/>
      <point x="1053" y="-135" type="curve" smooth="yes"/>
      <point x="1053" y="1132" type="line" smooth="yes"/>
      <point x="1053" y="1178"/>
      <point x="1035" y="1197"/>
      <point x="981" y="1197" type="curve" smooth="yes"/>
    </contour>
  </outline>
</glyph>
<glyph name="eng" format="1">
  <advance width="1228"/>
  <unicode hex="014B"/>
  <outline>
    <contour>
      <point x="581" y="946"/>
      <point x="430" y="842"/>
      <point x="342" y="706" type="curve"/>
      <point x="342" y="869" type="line" smooth="yes"/>
      <point x="342" y="915"/>
      <point x="326" y="934"/>
      <point x="273" y="934" type="curve" smooth="yes"/>
      <point x="271" y="934" type="line" smooth="yes"/>
      <point x="218" y="934"/>
      <point x="202" y="915"/>
      <point x="202" y="869" type="curve" smooth="yes"/>
      <point x="202" y="55" type="line" smooth="yes"/>
      <point x="202" y="9"/>
      <point x="220" y="-10"/>
      <point x="276" y="-10" type="curve" smooth="yes"/>
      <point x="278" y="-10" type="line" smooth="yes"/>
      <point x="334" y="-10"/>
      <point x="352" y="9"/>
      <point x="352" y="55" type="curve" smooth="yes"/>
      <point x="352" y="392" type="line" smooth="yes"/>
      <point x="352" y="620"/>
      <point x="541" y="798"/>
      <point x="712" y="798" type="curve" smooth="yes"/>
      <point x="841" y="798"/>
      <point x="894" y="720"/>
      <point x="894" y="605" type="curve" smooth="yes"/>
      <point x="894" y="-107" type="line" smooth="yes"/>
      <point x="894" y="-220"/>
      <point x="854" y="-264"/>
      <point x="772" y="-264" type="curve" smooth="yes"/>
      <point x="712" y="-264"/>
      <point x="648" y="-246"/>
      <point x="595" y="-224" type="curve" smooth="yes"/>
      <point x="566" y="-212"/>
      <point x="535" y="-212"/>
      <point x="512" y="-265" type="curve" smooth="yes"/>
      <point x="490" y="-315"/>
      <point x="502" y="-343"/>
      <point x="540" y="-360" type="curve" smooth="yes"/>
      <point x="608" y="-390"/>
      <point x="691" y="-410"/>
      <point x="771" y="-410" type="curve" smooth="yes"/>
      <point x="947" y="-410"/>
      <point x="1044" y="-314"/>
      <point x="1044" y="-135" type="curve" smooth="yes"/>
      <point x="1044" y="620" type="line" smooth="yes"/>
      <point x="1044" y="820"/>
      <point x="931" y="946"/>
      <point x="727" y="946" type="curve" smooth="yes"/>
    </contour>
  </outline>
</glyph>
<glyph name="dotaccent" format="1">
  <advance width="1228"/>
  <unicode hex="02D9"/>
  <outline>
    <contour>
      <point x="709" y="1298" type="line" smooth="yes"/>
      <point x="709" y="1344"/>
      <point x="690" y="1363"/>
      <point x="614" y="1363" type="curve" smooth="yes"/>
      <point x="538" y="1363"/>
      <point x="519" y="1344"/>
      <point x="519" y="1298" type="curve" smooth="yes"/>
      <point x="519" y="1168" type="line" smooth="yes"/>
      <point x="519" y="1122"/>
      <point x="538" y="1103"/>
      <point x="614" y="1103" type="curve" smooth="yes"/>
      <point x="690" y="1103"/>
      <point x="709" y="1122"/>
      <point x="709" y="1168" type="curve" smooth="yes"/>
    </contour>
  </outline>
</glyph>
<glyph name="hungarumlaut" format="1">
  <advance width="1228"/>
  <unicode hex="02DD"/>
  <outline>
    <contour>
      <point x="630" y="1409"/>
      <point x="591" y="1402"/>
      <point x="564" y="1373" type="curve" smooth="yes"/>
      <point x="327" y="1120" type="line" smooth="yes"/>
      <point x="308" y="1100"/>
      <point x="317" y="1075"/>
      <point x="347" y="1056" type="curve" smooth="yes"/>
      <point x="381" y="1035"/>
      <point x="411" y="1034"/>
      <point x="434" y="1053" type="curve" smooth="yes"/>
      <point x="704" y="1286" type="line" smooth="yes"/>
      <point x="733" y="1311"/>
      <point x="733" y="1345"/>
      <point x="678" y="1379" type="curve" smooth="yes"/>
    </contour>
    <contour>
      <point x="1010" y="1409"/>
      <point x="971" y="1402"/>
      <point x="944" y="1373" type="curve" smooth="yes"/>
      <point x="707" y="1120" type="line" smooth="yes"/>
      <point x="688" y="1100"/>
      <point x="697" y="1075"/>
      <point x="727" y="1056" type="curve" smooth="yes"/>
      <point x="761" y="1035"/>
      <point x="791" y="1034"/>
      <point x="814" y="1053" type="curve" smooth="yes"/>
      <point x="1084" y="1286" type="line" smooth="yes"/>
      <point x="1113" y="1311"/>
      <point x="1113" y="1345"/>
      <point x="1058" y="1379" type="curve" smooth="yes"/>
    </contour>
  </outline>
</glyph>
<glyph name="bullet" format="1">
  <advance width="1228"/>
  <unicode hex="2022"/>
  <outline>
    <contour>
      <point x="451" y="853"/>
      <point x="382" y="825"/>
      <point x="382" y="755" type="curve" smooth="yes"/>
      <point x="382" y="453" type="line" smooth="yes"/>
      <point x="382" y="383"/>
      <point x="451" y="355"/>
      <point x="614" y="355" type="curve" smooth="yes"/>
      <point x="777" y="355"/>
      <point x="846" y="383"/>
      <point x="846" y="453" type="curve" smooth="yes"/>
      <point x="846" y="755" type="line" smooth="yes"/>
      <point x="846" y="825"/>
      <point x="777" y="853"/>
      <point x="614" y="853" type="curve" smooth="yes"/>
    </contour>
  </outline>
</glyph>
<glyph name="ellipsis" format="1">
  <advance width="1228"/>
  <unicode hex="2026"/>
  <outline>
    <contour>
      <point x="940" y="230"/>
      <point x="909" y="215"/>
      <point x="909" y="177" type="curve" smooth="yes"/>
      <point x="909" y="43" type="line" smooth="yes"/>
      <point x="909" y="5"/>
      <point x="940" y="-10"/>
      <point x="1014" y="-10" type="curve" smooth="yes"/>
      <point x="1088" y="-10"/>
      <point x="1119" y="5"/>
      <point x="1119" y="43" type="curve" smooth="yes"/>
      <point x="1119" y="177" type="line" smooth="yes"/>
      <point x="1119" y="215"/>
      <point x="1088" y="230"/>
      <point x="1014" y="230" type="curve" smooth="yes"/>
    </contour>
    <contour>
      <point x="140" y="230"/>
      <point x="109" y="215"/>
      <point x="109" y="177" type="curve" smooth="yes"/>
      <point x="109" y="43" type="line" smooth="yes"/>
      <point x="109" y="5"/>
      <point x="140" y="-10"/>
      <point x="214" y="-10" type="curve" smooth="yes"/>
      <point x="288" y="-10"/>
      <point x="319" y="5"/>
      <point x="319" y="43" type="curve" smooth="yes"/>
      <point x="319" y="177" type="line" smooth="yes"/>
      <point x="319" y="215"/>
      <point x="288" y="230"/>
      <point x="214" y="230" type="curve" smooth="yes"/>
    </contour>
    <contour>
      <point x="540" y="230"/>
      <point x="509" y="215"/>
      <point x="509" y="177" type="curve" smooth="yes"/>
      <point x="509" y="43" type="line" smooth="yes"/>
      <point x="509" y="5"/>
      <point x="540" y="-10"/>
      <point x="614" y="-10" type="curve" smooth="yes"/>
      <point x="688" y="-10"/>
      <point x="719" y="5"/>
      <point x="719" y="43" type="curve" smooth="yes"/>
      <point x="719" y="177" type="line" smooth="yes"/>
      <point x="719" y="215"/>
      <point x="688" y="230"/>
      <point x="614" y="230" type="curve" smooth="yes"/>
    </contour>
  </outline>
</glyph>
<glyph name="partialdiff" format="1">
  <advance width="1228"/>
  <unicode hex="2202"/>
  <outline>
    <contour>
      <point x="578" y="1209"/>
      <point x="510" y="1197"/>
      <point x="447" y="1170" type="curve" smooth="yes"/>
      <point x="421" y="1159"/>
      <point x="406" y="1133"/>
      <point x="425" y="1084" type="curve" smooth="yes"/>
      <point x="447" y="1029"/>
      <point x="470" y="1024"/>
      <point x="494" y="1031" type="curve" smooth="yes"/>
      <point x="548" y="1046"/>
      <point x="597" y="1054"/>
      <point x="641" y="1054" type="curve" smooth="yes"/>
      <point x="818" y="1054"/>
      <point x="908" y="929"/>
      <point x="908" y="724" type="curve" smooth="yes"/>
      <point x="908" y="664"/>
      <point x="900" y="598"/>
      <point x="885" y="526" type="curve"/>
      <point x="829" y="657"/>
      <point x="712" y="731"/>
      <point x="562" y="731" type="curve" smooth="yes"/>
      <point x="337" y="731"/>
      <point x="167" y="573"/>
      <point x="167" y="334" type="curve" smooth="yes"/>
      <point x="167" y="129"/>
      <point x="308" y="-23"/>
      <point x="526" y="-23" type="curve" smooth="yes"/>
      <point x="714" y="-23"/>
      <point x="846" y="66"/>
      <point x="935" y="249" type="curve" smooth="yes"/>
      <point x="1009" y="402"/>
      <point x="1049" y="598"/>
      <point x="1049" y="742" type="curve" smooth="yes"/>
      <point x="1049" y="1068"/>
      <point x="856" y="1209"/>
      <point x="644" y="1209" type="curve" smooth="yes"/>
    </contour>
    <contour>
      <point x="717" y="583"/>
      <point x="810" y="482"/>
      <point x="834" y="353" type="curve"/>
      <point x="769" y="199"/>
      <point x="670" y="127"/>
      <point x="525" y="126" type="curve" smooth="yes"/>
      <point x="402" y="126"/>
      <point x="321" y="208"/>
      <point x="321" y="333" type="curve" smooth="yes"/>
      <point x="321" y="484"/>
      <point x="418" y="583"/>
      <point x="575" y="583" type="curve" smooth="yes"/>
    </contour>
  </outline>
</glyph>
<glyph name="infinity" format="1">
  <advance width="1228"/>
  <unicode hex="221E"/>
  <outline>
    <contour>
      <point x="769" y="871"/>
      <point x="685" y="781"/>
      <point x="614" y="682" type="curve"/>
      <point x="543" y="781"/>
      <point x="459" y="871"/>
      <point x="308" y="871" type="curve" smooth="yes"/>
      <point x="147" y="871"/>
      <point x="28" y="746"/>
      <point x="28" y="582" type="curve" smooth="yes"/>
      <point x="28" y="418"/>
      <point x="147" y="293"/>
      <point x="308" y="293" type="curve" smooth="yes"/>
      <point x="459" y="293"/>
      <point x="543" y="383"/>
      <point x="614" y="481" type="curve"/>
      <point x="685" y="383"/>
      <point x="769" y="293"/>
      <point x="920" y="293" type="curve" smooth="yes"/>
      <point x="1081" y="293"/>
      <point x="1200" y="418"/>
      <point x="1200" y="582" type="curve" smooth="yes"/>
      <point x="1200" y="746"/>
      <point x="1081" y="871"/>
      <point x="920" y="871" type="curve" smooth="yes"/>
    </contour>
    <contour>
      <point x="418" y="737"/>
      <point x="483" y="666"/>
      <point x="544" y="582" type="curve"/>
      <point x="483" y="497"/>
      <point x="418" y="427"/>
      <point x="311" y="427" type="curve" smooth="yes"/>
      <point x="221" y="427"/>
      <point x="166" y="495"/>
      <point x="166" y="582" type="curve" smooth="yes"/>
      <point x="166" y="669"/>
      <point x="221" y="737"/>
      <point x="311" y="737" type="curve" smooth="yes"/>
    </contour>
    <contour>
      <point x="1007" y="737"/>
      <point x="1062" y="669"/>
      <point x="1062" y="582" type="curve" smooth="yes"/>
      <point x="1062" y="495"/>
      <point x="1007" y="427"/>
      <point x="917" y="427" type="curve" smooth="yes"/>
      <point x="810" y="427"/>
      <point x="744" y="497"/>
      <point x="684" y="582" type="curve"/>
      <point x="744" y="666"/>
      <point x="810" y="737"/>
      <point x="917" y="737" type="curve" smooth="yes"/>
    </contour>
  </outline>
</glyph>
<glyph name="lessequal" format="1">
  <advance width="1228"/>
  <unicode hex="2264"/>
  <outline>
    <contour>
      <point x="222" y="835" type="line" smooth="yes"/>
      <point x="189" y="822"/>
      <point x="170" y="798"/>
      <point x="170" y="755" type="curve" smooth="yes"/>
      <point x="170" y="712"/>
      <point x="189" y="688"/>
      <point x="222" y="675" type="curve" smooth="yes"/>
      <point x="960" y="385" type="line" smooth="yes"/>
      <point x="1002" y="369"/>
      <point x="1030" y="382"/>
      <point x="1049" y="431" type="curve" smooth="yes"/>
      <point x="1069" y="482"/>
      <point x="1052" y="507"/>
      <point x="1009" y="523" type="curve" smooth="yes"/>
      <point x="396" y="755" type="line"/>
      <point x="1009" y="987" type="line" smooth="yes"/>
      <point x="1052" y="1003"/>
      <point x="1069" y="1028"/>
      <point x="1049" y="1079" type="curve" smooth="yes"/>
      <point x="1030" y="1128"/>
      <point x="1002" y="1141"/>
      <point x="960" y="1125" type="curve" smooth="yes"/>
    </contour>
    <contour>
      <point x="233" y="254" type="line" smooth="yes"/>
      <point x="188" y="254"/>
      <point x="170" y="234"/>
      <point x="170" y="182" type="curve" smooth="yes"/>
      <point x="170" y="130"/>
      <point x="188" y="110"/>
      <point x="233" y="110" type="curve" smooth="yes"/>
      <point x="995" y="110" type="line" smooth="yes"/>
      <point x="1040" y="110"/>
      <point x="1058" y="130"/>
      <point x="1058" y="182" type="curve" smooth="yes"/>
      <point x="1058" y="234"/>
      <point x="1040" y="254"/>
      <point x="995" y="254" type="curve" smooth="yes"/>
    </contour>
  </outline>
</glyph>
<glyph name="greaterequal" format="1">
  <advance width="1228"/>
  <unicode hex="2265"/>
  <outline>
    <contour>
      <point x="226" y="1141"/>
      <point x="198" y="1128"/>
      <point x="179" y="1079" type="curve" smooth="yes"/>
      <point x="159" y="1028"/>
      <point x="176" y="1003"/>
      <point x="219" y="987" type="curve" smooth="yes"/>
      <point x="832" y="755" type="line"/>
      <point x="219" y="523" type="line"/>
      <point x="176" y="507"/>
      <point x="159" y="482"/>
      <point x="179" y="431" type="curve" smooth="yes"/>
      <point x="198" y="382"/>
      <point x="226" y="369"/>
      <point x="268" y="385" type="curve" smooth="yes"/>
      <point x="1006" y="675" type="line" smooth="yes"/>
      <point x="1039" y="688"/>
      <point x="1058" y="712"/>
      <point x="1058" y="755" type="curve" smooth="yes"/>
      <point x="1058" y="798"/>
      <point x="1039" y="822"/>
      <point x="1006" y="835" type="curve" smooth="yes"/>
      <point x="268" y="1125" type="line" smooth="yes"/>
    </contour>
    <contour>
      <point x="233" y="254" type="line" smooth="yes"/>
      <point x="188" y="254"/>
      <point x="170" y="234"/>
      <point x="170" y="182" type="curve" smooth="yes"/>
      <point x="170" y="130"/>
      <point x="188" y="110"/>
      <point x="233" y="110" type="curve" smooth="yes"/>
      <point x="995" y="110" type="line"/>
      <point x="1040" y="110"/>
      <point x="1058" y="130"/>
      <point x="1058" y="182" type="curve" smooth="yes"/>
      <point x="1058" y="234"/>
      <point x="1040" y="254"/>
      <point x="995" y="254" type="curve" smooth="yes"/>
    </contour>
  </outline>
</glyph>
<glyph name="dieresis.case" format="1">
  <advance width="1228"/>
  <outline>
    <contour>
      <point x="499" y="1558" type="line" smooth="yes"/>
      <point x="499" y="1604"/>
      <point x="480" y="1623"/>
      <point x="404" y="1623" type="curve" smooth="yes"/>
      <point x="328" y="1623"/>
      <point x="309" y="1604"/>
      <point x="309" y="1558" type="curve" smooth="yes"/>
      <point x="309" y="1428" type="line" smooth="yes"/>
      <point x="309" y="1382"/>
      <point x="328" y="1363"/>
      <point x="404" y="1363" type="curve" smooth="yes"/>
      <point x="480" y="1363"/>
      <point x="499" y="1382"/>
      <point x="499" y="1428" type="curve" smooth="yes"/>
    </contour>
    <contour>
      <point x="919" y="1558" type="line" smooth="yes"/>
      <point x="919" y="1604"/>
      <point x="900" y="1623"/>
      <point x="824" y="1623" type="curve" smooth="yes"/>
      <point x="748" y="1623"/>
      <point x="729" y="1604"/>
      <point x="729" y="1558" type="curve" smooth="yes"/>
      <point x="729" y="1428" type="line" smooth="yes"/>
      <point x="729" y="1382"/>
      <point x="748" y="1363"/>
      <point x="824" y="1363" type="curve" smooth="yes"/>
      <point x="900" y="1363"/>
      <point x="919" y="1382"/>
      <point x="919" y="1428" type="curve" smooth="yes"/>
    </contour>
    <contour>
      <point x="614" y="1187" type="move" name="_top"/>
    </contour>
  </outline>
</glyph>
<glyph name="ring.case" format="1">
  <advance width="1228"/>
  <outline>
    <component base="ring" yOffset="270"/>
    <contour>
      <point x="614" y="1187" type="move" name="_top"/>
    </contour>
  </outline>
</glyph>
<glyph name="tilde.case" format="1">
  <advance width="1228"/>
  <outline>
    <contour>
      <point x="427" y="1567"/>
      <point x="363" y="1542"/>
      <point x="284" y="1476" type="curve" smooth="yes"/>
      <point x="263" y="1459"/>
      <point x="261" y="1431"/>
      <point x="278" y="1402" type="curve" smooth="yes"/>
      <point x="295" y="1373"/>
      <point x="318" y="1364"/>
      <point x="340" y="1377" type="curve" smooth="yes"/>
      <point x="387" y="1405"/>
      <point x="435" y="1419"/>
      <point x="475" y="1419" type="curve" smooth="yes"/>
      <point x="565" y="1419"/>
      <point x="645" y="1356"/>
      <point x="744" y="1356" type="curve" smooth="yes"/>
      <point x="801" y="1356"/>
      <point x="865" y="1381"/>
      <point x="944" y="1447" type="curve" smooth="yes"/>
      <point x="965" y="1464"/>
      <point x="967" y="1492"/>
      <point x="950" y="1521" type="curve" smooth="yes"/>
      <point x="933" y="1550"/>
      <point x="910" y="1559"/>
      <point x="888" y="1546" type="curve" smooth="yes"/>
      <point x="841" y="1518"/>
      <point x="793" y="1504"/>
      <point x="753" y="1504" type="curve" smooth="yes"/>
      <point x="663" y="1504"/>
      <point x="583" y="1567"/>
      <point x="484" y="1567" type="curve" smooth="yes"/>
    </contour>
    <contour>
      <point x="614" y="1187" type="move" name="_top"/>
    </contour>
  </outline>
</glyph>
